<?xml version="1.0" encoding="UTF-8" standalone="no"?>
<!DOCTYPE svg PUBLIC "-//W3C//DTD SVG 1.0//EN" "http://www.w3.org/TR/2001/PR-SVG-20010719/DTD/svg10.dtd">
<svg width="29cm" height="19cm" viewBox="56 70 569 378" xmlns="http://www.w3.org/2000/svg" xmlns:xlink="http://www.w3.org/1999/xlink">
  <g>
    <rect style="fill: #ffffff" x="76" y="70" width="118.4" height="18"/>
    <rect style="fill: none; fill-opacity:0; stroke-width: 2; stroke: #000000" x="76" y="70" width="118.4" height="18"/>
    <text font-size="11.2" style="fill: #000000;text-anchor:middle;font-family:sans-serif;font-style:normal;font-weight:700" x="135.2" y="84">documents</text>
    <rect style="fill: #ffffff" x="76" y="88" width="118.4" height="68"/>
    <rect style="fill: none; fill-opacity:0; stroke-width: 2; stroke: #000000" x="76" y="88" width="118.4" height="68"/>
    <polygon style="fill: #000000" points="79,98 81,101 83,98 81,95 "/>
    <text font-size="12.8" style="fill: #000000;text-anchor:start;font-family:monospace;font-style:normal;font-weight:normal" x="85" y="104">id</text>
    <text font-size="12.8" style="fill: #000000;text-anchor:start;font-family:monospace;font-style:normal;font-weight:normal" x="133.5" y="104">INTEGER</text>
    <line style="fill: none; fill-opacity:0; stroke-width: 1; stroke: #000000" x1="85" y1="105.6" x2="187.4" y2="105.6"/>
    <ellipse style="fill: none; fill-opacity:0; stroke-width: 0.2; stroke: #000000" cx="81" cy="114" rx="2" ry="2"/>
    <text font-size="12.8" style="fill: #000000;text-anchor:start;font-family:monospace;font-style:normal;font-weight:normal" x="85" y="120">uri</text>
    <text font-size="12.8" style="fill: #000000;text-anchor:start;font-family:monospace;font-style:normal;font-weight:normal" x="133.5" y="120">TEXT</text>
    <ellipse style="fill: #000000" cx="81" cy="130" rx="2" ry="2"/>
    <text font-size="12.8" style="fill: #000000;text-anchor:start;font-family:monospace;font-style:normal;font-weight:normal" x="85" y="136">dirty</text>
    <text font-size="12.8" style="fill: #000000;text-anchor:start;font-family:monospace;font-style:normal;font-weight:normal" x="133.5" y="136">BOOLEAN</text>
    <ellipse style="fill: none; fill-opacity:0; stroke-width: 0.2; stroke: #000000" cx="81" cy="146" rx="2" ry="2"/>
    <text font-size="12.8" style="fill: #000000;text-anchor:start;font-family:monospace;font-style:normal;font-weight:normal" x="85" y="152">time</text>
    <text font-size="12.8" style="fill: #000000;text-anchor:start;font-family:monospace;font-style:normal;font-weight:normal" x="133.5" y="152">NUMERIC</text>
  </g>
  <g>
    <rect style="fill: #ffffff" x="280" y="83" width="187.7" height="18"/>
    <rect style="fill: none; fill-opacity:0; stroke-width: 2; stroke: #000000" x="280" y="83" width="187.7" height="18"/>
    <text font-size="11.2" style="fill: #000000;text-anchor:middle;font-family:sans-serif;font-style:normal;font-weight:700" x="373.85" y="97">metadata_dict</text>
    <rect style="fill: #ffffff" x="280" y="101" width="187.7" height="52"/>
    <rect style="fill: none; fill-opacity:0; stroke-width: 2; stroke: #000000" x="280" y="101" width="187.7" height="52"/>
    <polygon style="fill: #000000" points="283,111 285,114 287,111 285,108 "/>
    <text font-size="12.8" style="fill: #000000;text-anchor:start;font-family:monospace;font-style:normal;font-weight:normal" x="289" y="117">id</text>
    <text font-size="12.8" style="fill: #000000;text-anchor:start;font-family:monospace;font-style:normal;font-weight:normal" x="406.8" y="117">INTEGER</text>
    <line style="fill: none; fill-opacity:0; stroke-width: 1; stroke: #000000" x1="289" y1="118.6" x2="460.7" y2="118.6"/>
    <ellipse style="fill: none; fill-opacity:0; stroke-width: 0.2; stroke: #000000" cx="285" cy="127" rx="2" ry="2"/>
    <text font-size="12.8" style="fill: #000000;text-anchor:start;font-family:monospace;font-style:normal;font-weight:normal" x="289" y="133">metadata_key</text>
    <text font-size="12.8" style="fill: #000000;text-anchor:start;font-family:monospace;font-style:normal;font-weight:normal" x="406.8" y="133">TEXT</text>
    <ellipse style="fill: none; fill-opacity:0; stroke-width: 0.2; stroke: #000000" cx="285" cy="143" rx="2" ry="2"/>
    <text font-size="12.8" style="fill: #000000;text-anchor:start;font-family:monospace;font-style:normal;font-weight:normal" x="289" y="149">metadata_value</text>
    <text font-size="12.8" style="fill: #000000;text-anchor:start;font-family:monospace;font-style:normal;font-weight:normal" x="406.8" y="149">TEXT</text>
  </g>
  <g>
    <rect style="fill: #ffffff" x="285" y="207" width="171.85" height="18"/>
    <rect style="fill: none; fill-opacity:0; stroke-width: 2; stroke: #000000" x="285" y="207" width="171.85" height="18"/>
    <text font-size="11.2" style="fill: #000000;text-anchor:middle;font-family:sans-serif;font-style:normal;font-weight:700" x="370.925" y="221">metadata_document_map</text>
    <rect style="fill: #ffffff" x="285" y="225" width="171.85" height="36"/>
    <rect style="fill: none; fill-opacity:0; stroke-width: 2; stroke: #000000" x="285" y="225" width="171.85" height="36"/>
    <ellipse style="fill: #000000" cx="290" cy="235" rx="2" ry="2"/>
    <text font-size="12.8" style="fill: #000000;text-anchor:start;font-family:monospace;font-style:normal;font-weight:normal" x="294" y="241">metadata_id</text>
    <text font-size="12.8" style="fill: #000000;text-anchor:start;font-family:monospace;font-style:normal;font-weight:normal" x="388.7" y="241">INTEGER</text>
    <ellipse style="fill: #000000" cx="290" cy="251" rx="2" ry="2"/>
    <text font-size="12.8" style="fill: #000000;text-anchor:start;font-family:monospace;font-style:normal;font-weight:normal" x="294" y="257">document_id</text>
    <text font-size="12.8" style="fill: #000000;text-anchor:start;font-family:monospace;font-style:normal;font-weight:normal" x="388.7" y="257">INTEGER</text>
  </g>
  <g>
    <polyline style="fill: none; fill-opacity:0; stroke-width: 2; stroke: #000000" points="456.85,235 476.85,235 476.85,173 260,173 260,111 270.264,111 "/>
    <polygon style="fill: #000000" points="277.764,111 267.764,116 270.264,111 267.764,106 "/>
    <polygon style="fill: none; fill-opacity:0; stroke-width: 2; stroke: #000000" points="277.764,111 267.764,116 270.264,111 267.764,106 "/>
    <text font-size="9.59961" style="fill: #000000;text-anchor:start;font-family:monospace;font-style:normal;font-weight:normal" x="460.85" y="231">1</text>
    <text font-size="9.59961" style="fill: #000000;text-anchor:end;font-family:monospace;font-style:normal;font-weight:normal" x="276" y="107">n</text>
  </g>
  <g>
    <polyline style="fill: none; fill-opacity:0; stroke-width: 2; stroke: #000000" points="285,251 56,251 56,98 66.2639,98 "/>
    <polygon style="fill: #000000" points="73.7639,98 63.7639,103 66.2639,98 63.7639,93 "/>
    <polygon style="fill: none; fill-opacity:0; stroke-width: 2; stroke: #000000" points="73.7639,98 63.7639,103 66.2639,98 63.7639,93 "/>
    <text font-size="9.59961" style="fill: #000000;text-anchor:end;font-family:monospace;font-style:normal;font-weight:normal" x="281" y="247">1</text>
    <text font-size="9.59961" style="fill: #000000;text-anchor:end;font-family:monospace;font-style:normal;font-weight:normal" x="72" y="94">n</text>
  </g>
  <g>
    <rect style="fill: #ffffff" x="316" y="324" width="110.7" height="18"/>
    <rect style="fill: none; fill-opacity:0; stroke-width: 2; stroke: #000000" x="316" y="324" width="110.7" height="18"/>
    <text font-size="11.2" style="fill: #000000;text-anchor:middle;font-family:sans-serif;font-style:normal;font-weight:700" x="371.35" y="338">terms</text>
    <rect style="fill: #ffffff" x="316" y="342" width="110.7" height="36"/>
    <rect style="fill: none; fill-opacity:0; stroke-width: 2; stroke: #000000" x="316" y="342" width="110.7" height="36"/>
    <polygon style="fill: #000000" points="319,352 321,355 323,352 321,349 "/>
    <text font-size="12.8" style="fill: #000000;text-anchor:start;font-family:monospace;font-style:normal;font-weight:normal" x="325" y="358">id</text>
    <text font-size="12.8" style="fill: #000000;text-anchor:start;font-family:monospace;font-style:normal;font-weight:normal" x="365.8" y="358">INTEGER</text>
    <line style="fill: none; fill-opacity:0; stroke-width: 1; stroke: #000000" x1="325" y1="359.6" x2="419.7" y2="359.6"/>
    <ellipse style="fill: none; fill-opacity:0; stroke-width: 0.2; stroke: #000000" cx="321" cy="368" rx="2" ry="2"/>
    <text font-size="12.8" style="fill: #000000;text-anchor:start;font-family:monospace;font-style:normal;font-weight:normal" x="325" y="374">term</text>
    <text font-size="12.8" style="fill: #000000;text-anchor:start;font-family:monospace;font-style:normal;font-weight:normal" x="365.8" y="374">TEXT</text>
  </g>
  <g>
    <rect style="fill: #ffffff" x="475" y="377" width="149.2" height="18"/>
    <rect style="fill: none; fill-opacity:0; stroke-width: 2; stroke: #000000" x="475" y="377" width="149.2" height="18"/>
    <text font-size="11.2" style="fill: #000000;text-anchor:middle;font-family:sans-serif;font-style:normal;font-weight:700" x="549.6" y="391">term_document_map</text>
    <rect style="fill: #ffffff" x="475" y="395" width="149.2" height="52"/>
    <rect style="fill: none; fill-opacity:0; stroke-width: 2; stroke: #000000" x="475" y="395" width="149.2" height="52"/>
    <ellipse style="fill: none; fill-opacity:0; stroke-width: 0.2; stroke: #000000" cx="480" cy="405" rx="2" ry="2"/>
    <text font-size="12.8" style="fill: #000000;text-anchor:start;font-family:monospace;font-style:normal;font-weight:normal" x="484" y="411">term</text>
    <text font-size="12.8" style="fill: #000000;text-anchor:start;font-family:monospace;font-style:normal;font-weight:normal" x="563.3" y="411">INTEGER</text>
    <ellipse style="fill: none; fill-opacity:0; stroke-width: 0.2; stroke: #000000" cx="480" cy="421" rx="2" ry="2"/>
    <text font-size="12.8" style="fill: #000000;text-anchor:start;font-family:monospace;font-style:normal;font-weight:normal" x="484" y="427">document</text>
    <text font-size="12.8" style="fill: #000000;text-anchor:start;font-family:monospace;font-style:normal;font-weight:normal" x="563.3" y="427">INTEGER</text>
    <ellipse style="fill: none; fill-opacity:0; stroke-width: 0.2; stroke: #000000" cx="480" cy="437" rx="2" ry="2"/>
    <text font-size="12.8" style="fill: #000000;text-anchor:start;font-family:monospace;font-style:normal;font-weight:normal" x="484" y="443">frequency</text>
    <text font-size="12.8" style="fill: #000000;text-anchor:start;font-family:monospace;font-style:normal;font-weight:normal" x="563.3" y="443">INTEGER</text>
  </g>
  <g>
    <rect style="fill: #ffffff" x="122" y="324" width="141.5" height="18"/>
    <rect style="fill: none; fill-opacity:0; stroke-width: 2; stroke: #000000" x="122" y="324" width="141.5" height="18"/>
    <text font-size="11.2" style="fill: #000000;text-anchor:middle;font-family:sans-serif;font-style:normal;font-weight:700" x="192.75" y="338">term_doc_location</text>
    <rect style="fill: #ffffff" x="122" y="342" width="141.5" height="52"/>
    <rect style="fill: none; fill-opacity:0; stroke-width: 2; stroke: #000000" x="122" y="342" width="141.5" height="52"/>
    <ellipse style="fill: none; fill-opacity:0; stroke-width: 0.2; stroke: #000000" cx="127" cy="352" rx="2" ry="2"/>
    <text font-size="12.8" style="fill: #000000;text-anchor:start;font-family:monospace;font-style:normal;font-weight:normal" x="131" y="358">term</text>
    <text font-size="12.8" style="fill: #000000;text-anchor:start;font-family:monospace;font-style:normal;font-weight:normal" x="202.6" y="358">INTEGER</text>
    <ellipse style="fill: none; fill-opacity:0; stroke-width: 0.2; stroke: #000000" cx="127" cy="368" rx="2" ry="2"/>
    <text font-size="12.8" style="fill: #000000;text-anchor:start;font-family:monospace;font-style:normal;font-weight:normal" x="131" y="374">document</text>
    <text font-size="12.8" style="fill: #000000;text-anchor:start;font-family:monospace;font-style:normal;font-weight:normal" x="202.6" y="374">INTEGER</text>
    <ellipse style="fill: none; fill-opacity:0; stroke-width: 0.2; stroke: #000000" cx="127" cy="384" rx="2" ry="2"/>
    <text font-size="12.8" style="fill: #000000;text-anchor:start;font-family:monospace;font-style:normal;font-weight:normal" x="131" y="390">location</text>
    <text font-size="12.8" style="fill: #000000;text-anchor:start;font-family:monospace;font-style:normal;font-weight:normal" x="202.6" y="390">INTEGER</text>
  </g>
  <g>
    <polyline style="fill: none; fill-opacity:0; stroke-width: 2; stroke: #000000" points="263.5,352 263.5,352 306.264,352 "/>
    <polygon style="fill: #000000" points="313.764,352 303.764,357 306.264,352 303.764,347 "/>
    <polygon style="fill: none; fill-opacity:0; stroke-width: 2; stroke: #000000" points="313.764,352 303.764,357 306.264,352 303.764,347 "/>
    <text font-size="9.59961" style="fill: #000000;text-anchor:start;font-family:monospace;font-style:normal;font-weight:normal" x="267.5" y="348">1</text>
    <text font-size="9.59961" style="fill: #000000;text-anchor:start;font-family:monospace;font-style:normal;font-weight:normal" x="320" y="364">n</text>
  </g>
  <g>
    <polyline style="fill: none; fill-opacity:0; stroke-width: 2; stroke: #000000" points="475,405 450.85,405 450.85,352 436.436,352 "/>
    <polygon style="fill: #000000" points="428.936,352 438.936,347 436.436,352 438.936,357 "/>
    <polygon style="fill: none; fill-opacity:0; stroke-width: 2; stroke: #000000" points="428.936,352 438.936,347 436.436,352 438.936,357 "/>
    <text font-size="9.59961" style="fill: #000000;text-anchor:end;font-family:monospace;font-style:normal;font-weight:normal" x="471" y="401">1</text>
    <text font-size="9.59961" style="fill: #000000;text-anchor:start;font-family:monospace;font-style:normal;font-weight:normal" x="430.7" y="348">n</text>
  </g>
  <g>
    <polyline style="fill: none; fill-opacity:0; stroke-width: 2; stroke: #000000" points="122,368 56,368 56,98 66.2639,98 "/>
    <polygon style="fill: #000000" points="73.7639,98 63.7639,103 66.2639,98 63.7639,93 "/>
    <polygon style="fill: none; fill-opacity:0; stroke-width: 2; stroke: #000000" points="73.7639,98 63.7639,103 66.2639,98 63.7639,93 "/>
    <text font-size="9.59961" style="fill: #000000;text-anchor:end;font-family:monospace;font-style:normal;font-weight:normal" x="118" y="364">1</text>
    <text font-size="9.59961" style="fill: #000000;text-anchor:end;font-family:monospace;font-style:normal;font-weight:normal" x="72" y="94">n</text>
  </g>
  <g>
    <polyline style="fill: none; fill-opacity:0; stroke-width: 2; stroke: #000000" points="475,421 56,421 56,98 66.2639,98 "/>
    <polygon style="fill: #000000" points="73.7639,98 63.7639,103 66.2639,98 63.7639,93 "/>
    <polygon style="fill: none; fill-opacity:0; stroke-width: 2; stroke: #000000" points="73.7639,98 63.7639,103 66.2639,98 63.7639,93 "/>
    <text font-size="9.59961" style="fill: #000000;text-anchor:end;font-family:monospace;font-style:normal;font-weight:normal" x="471" y="417">1</text>
    <text font-size="9.59961" style="fill: #000000;text-anchor:end;font-family:monospace;font-style:normal;font-weight:normal" x="72" y="94">n</text>
  </g>
</svg>
